control3min_grf.mot
version=1
nRows=30
nColumns 19
inDegrees=yes
endheader
time	1_ground_force_vx	1_ground_force_vy	1_ground_force_vz	1_ground_force_px	1_ground_force_py	1_ground_force_pz	1_ground_torque_x	1_ground_torque_y	1_ground_torque_z	2_ground_force_vx	2_ground_force_vy	2_ground_force_vz	2_ground_force_px	2_ground_force_py	2_ground_force_pz	2_ground_torque_x	2_ground_torque_y	2_ground_torque_z
            3.751500	            8.431802	          268.496695	          -17.396010	           -0.201440	            0.006225	           -0.404403	           -0.006211	           -0.197787	            0.012815	           -5.560540	          179.472299	           15.941286	           -0.162201	            0.005916	           -0.702797	           -0.018881	            0.609414	            0.054130
            3.752000	            8.570804	          264.169165	          -17.139767	           -0.202367	            0.006224	           -0.404162	           -0.003783	           -0.116599	            0.007565	           -5.175833	          176.711922	           15.790487	           -0.161969	            0.005921	           -0.703830	           -0.018304	            0.624935	            0.055842
            3.752500	            8.572133	          258.760605	          -17.025388	           -0.202156	            0.006226	           -0.404789	           -0.003975	           -0.119981	            0.007894	           -5.117911	          173.583419	           15.263088	           -0.162765	            0.005919	           -0.704087	           -0.018750	            0.635930	            0.055917
            3.753000	            8.893608	          256.236751	          -16.991150	           -0.201658	            0.006220	           -0.403260	           -0.005802	           -0.167178	            0.011086	           -4.498228	          170.639245	           15.252316	           -0.162341	            0.005921	           -0.704148	           -0.016585	            0.629143	            0.056235
            3.753500	            8.665965	          251.368324	          -16.736316	           -0.201936	            0.006222	           -0.403706	           -0.009516	           -0.276012	            0.018377	           -4.394018	          167.694214	           14.960194	           -0.163350	            0.005917	           -0.704109	           -0.016018	            0.611333	            0.054538
            3.754000	            8.346210	          247.581896	          -16.568328	           -0.202059	            0.006221	           -0.403527	           -0.011319	           -0.335764	            0.022470	           -3.959824	          164.197580	           14.759818	           -0.162296	            0.005922	           -0.704532	           -0.012528	            0.519504	            0.046698
            3.754500	            8.806616	          243.613977	          -16.082056	           -0.202139	            0.006218	           -0.402765	           -0.009634	           -0.266503	            0.017593	           -3.810613	          161.804000	           14.798145	           -0.162764	            0.005920	           -0.704473	           -0.011510	            0.488732	            0.044698
            3.755000	            8.898442	          239.108533	          -16.376743	           -0.202443	            0.006219	           -0.402987	           -0.005335	           -0.143345	            0.009818	           -3.653674	          157.202648	           14.265450	           -0.163286	            0.005912	           -0.702849	           -0.013129	            0.564866	            0.051259
            3.755500	            9.038013	          234.780020	          -15.891220	           -0.201665	            0.006220	           -0.403212	           -0.002781	           -0.072244	            0.004890	           -3.318640	          155.180034	           13.741873	           -0.162964	            0.005916	           -0.703550	           -0.011259	            0.526490	            0.046623
            3.756000	            9.222175	          230.453680	          -15.910226	           -0.201856	            0.006223	           -0.403876	           -0.003279	           -0.081932	            0.005657	           -2.931296	          151.683231	           13.541517	           -0.161882	            0.005919	           -0.703393	           -0.010721	            0.554765	            0.049527
            3.756500	            9.085597	          226.487415	          -15.835178	           -0.201760	            0.006221	           -0.403489	           -0.005311	           -0.132388	            0.009256	           -2.642221	          149.474466	           13.533513	           -0.163204	            0.005918	           -0.704344	           -0.008653	            0.489518	            0.044321
            3.757000	            8.903825	          223.961694	          -15.386986	           -0.202145	            0.006215	           -0.402243	           -0.010004	           -0.251643	            0.017289	           -2.632251	          146.712233	           13.523657	           -0.162806	            0.005921	           -0.704726	           -0.008692	            0.484435	            0.044654
            3.757500	            9.087468	          218.735205	          -15.684992	           -0.202569	            0.006217	           -0.402724	           -0.010368	           -0.249562	            0.017896	           -2.013378	          143.953402	           13.185046	           -0.162755	            0.005919	           -0.704062	           -0.006174	            0.441458	            0.040434
            3.758000	            8.951525	          214.407426	          -15.382211	           -0.201796	            0.006221	           -0.403537	           -0.009916	           -0.237513	            0.017040	           -2.094593	          140.455409	           12.844105	           -0.163015	            0.005918	           -0.704043	           -0.006095	            0.408691	            0.037373
            3.758500	            9.044796	          211.341157	          -14.982875	           -0.202062	            0.006221	           -0.403531	           -0.003305	           -0.077232	            0.005475	           -1.853862	          138.616096	           12.462010	           -0.163160	            0.005921	           -0.705024	           -0.005051	            0.377642	            0.033951
            3.759000	            9.044884	          207.736827	          -15.227614	           -0.202041	            0.006217	           -0.402709	           -0.001197	           -0.027501	            0.002016	           -1.650553	          134.197547	           12.352304	           -0.162617	            0.005919	           -0.703867	           -0.005410	            0.439893	            0.040490
            3.759500	            9.046064	          203.770196	          -15.061196	           -0.201820	            0.006218	           -0.402792	           -0.003552	           -0.080002	            0.005913	           -1.034879	          132.358446	           12.298547	           -0.162926	            0.005918	           -0.704033	           -0.003358	            0.429440	            0.039903
            3.760000	            9.184608	          200.704919	          -14.891254	           -0.202200	            0.006220	           -0.403258	           -0.009189	           -0.200797	            0.014898	           -0.881845	          128.861299	           11.957506	           -0.162388	            0.005918	           -0.703572	           -0.003219	            0.470429	            0.043653
            3.760500	            9.048339	          196.918331	          -14.677865	           -0.201388	            0.006217	           -0.402558	           -0.014530	           -0.316209	            0.023570	           -0.687258	          126.837356	           11.668630	           -0.162676	            0.005916	           -0.703264	           -0.001935	            0.357081	            0.032850
            3.761000	            8.774802	          192.951057	          -14.373196	           -0.202232	            0.006219	           -0.403070	           -0.012025	           -0.264415	            0.019697	           -0.536821	          124.076300	           11.471002	           -0.162626	            0.005919	           -0.704141	           -0.001411	            0.326174	            0.030155
            3.761500	            8.729812	          189.525607	          -14.296057	           -0.201950	            0.006218	           -0.402836	           -0.009243	           -0.200674	            0.015137	           -0.061012	          122.052368	           11.463575	           -0.162852	            0.005920	           -0.704598	           -0.000155	            0.310421	            0.029156
            3.762000	            8.777107	          187.180392	          -13.893516	           -0.202508	            0.006213	           -0.401659	           -0.005117	           -0.109116	            0.008099	            0.045857	          118.370744	           11.168825	           -0.162245	            0.005920	           -0.703914	            0.000099	            0.256643	            0.024215
            3.762500	            9.098813	          183.394679	          -13.864689	           -0.201237	            0.006215	           -0.401988	           -0.000114	           -0.002304	            0.000174	           -0.038058	          115.609680	           10.736656	           -0.162619	            0.005917	           -0.703573	           -0.000124	            0.377007	            0.035013
            3.763000	            8.962008	          179.428807	          -13.881352	           -0.201826	            0.006215	           -0.402099	           -0.001105	           -0.022131	            0.001712	            0.341270	          114.323006	           10.450329	           -0.163277	            0.005916	           -0.703905	            0.000987	            0.330647	            0.030225
            3.763500	            8.917018	          176.003357	          -13.804213	           -0.201492	            0.006215	           -0.402093	           -0.007187	           -0.141851	            0.011126	            0.537953	          111.745774	           10.394122	           -0.163041	            0.005914	           -0.703090	            0.001603	            0.333032	            0.030977
            3.764000	            8.642795	          173.298729	          -13.677557	           -0.201872	            0.006213	           -0.401674	           -0.012469	           -0.250022	            0.019733	            0.735240	          108.984887	           10.196474	           -0.163667	            0.005914	           -0.703571	            0.001893	            0.280535	            0.026246
            3.764500	            8.781455	          168.971790	          -13.558882	           -0.201899	            0.006217	           -0.402490	           -0.010365	           -0.199451	            0.016005	            1.073679	          106.040870	            9.857325	           -0.163243	            0.005913	           -0.702976	            0.001447	            0.142899	            0.013284
            3.765000	            8.552962	          166.267367	          -13.478196	           -0.201746	            0.006214	           -0.401792	           -0.006561	           -0.127545	            0.010339	            1.036257	          103.461620	           10.129715	           -0.163460	            0.005913	           -0.703153	            0.002615	            0.261077	            0.025561
            3.765500	            8.599835	          163.742674	          -13.259851	           -0.202573	            0.006211	           -0.401324	           -0.001684	           -0.032072	            0.002597	            1.091542	          101.069542	            9.651872	           -0.162980	            0.005912	           -0.702284	            0.003256	            0.301486	            0.028791
            3.766000	            8.601290	          160.135984	          -12.954319	           -0.202092	            0.006212	           -0.401469	            0.000511	            0.009506	           -0.000769	            1.475522	           98.493823	            9.360945	           -0.162229	            0.005912	           -0.701520	            0.003143	            0.209770	            0.019937
